<svg width="48" height="48" viewBox="0 0 48 48" fill="none" xmlns="http://www.w3.org/2000/svg">
<path d="M23.8361 44.0917C34.9611 44.0917 43.9798 35.048 43.9798 23.892C43.9798 12.7361 34.9611 3.69238 23.8361 3.69238C12.711 3.69238 3.69238 12.7361 3.69238 23.892C3.69238 35.048 12.711 44.0917 23.8361 44.0917Z" fill="url(#paint0_linear_2921_104752)"/>
<mask id="mask0_2921_104752" style="mask-type:alpha" maskUnits="userSpaceOnUse" x="3" y="3" width="41" height="42">
<path d="M23.8361 44.0917C34.9611 44.0917 43.9798 35.048 43.9798 23.892C43.9798 12.7361 34.9611 3.69238 23.8361 3.69238C12.711 3.69238 3.69238 12.7361 3.69238 23.892C3.69238 35.048 12.711 44.0917 23.8361 44.0917Z" fill="white"/>
</mask>
<g mask="url(#mask0_2921_104752)">
</g>
<mask id="mask1_2921_104752" style="mask-type:alpha" maskUnits="userSpaceOnUse" x="3" y="3" width="41" height="42">
<path d="M23.8361 44.0917C34.9611 44.0917 43.9798 35.048 43.9798 23.892C43.9798 12.7361 34.9611 3.69238 23.8361 3.69238C12.711 3.69238 3.69238 12.7361 3.69238 23.892C3.69238 35.048 12.711 44.0917 23.8361 44.0917Z" fill="white"/>
</mask>
<g mask="url(#mask1_2921_104752)">
<path fill-rule="evenodd" clip-rule="evenodd" d="M31.6037 23.7464C31.6037 28.1257 28.0584 31.6809 23.6912 31.6809C19.3241 31.6809 15.7788 28.1257 15.7788 23.7464C15.7788 19.3671 19.3241 15.812 23.6912 15.812C28.0584 15.812 31.6037 19.3671 31.6037 23.7464Z" fill="#FF9566"/>
<mask id="mask2_2921_104752" style="mask-type:alpha" maskUnits="userSpaceOnUse" x="15" y="15" width="17" height="17">
<path fill-rule="evenodd" clip-rule="evenodd" d="M31.6037 23.7464C31.6037 28.1257 28.0584 31.6809 23.6912 31.6809C19.3241 31.6809 15.7788 28.1257 15.7788 23.7464C15.7788 19.3671 19.3241 15.812 23.6912 15.812C28.0584 15.812 31.6037 19.3671 31.6037 23.7464Z" fill="white"/>
</mask>
<g mask="url(#mask2_2921_104752)">
<path fill-rule="evenodd" clip-rule="evenodd" d="M7.45557 29.8866L36.2933 13.1855L37.8323 15.86L8.99454 32.553L7.45557 29.8866Z" fill="url(#paint1_linear_2921_104752)"/>
</g>
<mask id="mask3_2921_104752" style="mask-type:alpha" maskUnits="userSpaceOnUse" x="15" y="15" width="17" height="17">
<path fill-rule="evenodd" clip-rule="evenodd" d="M31.6037 23.7464C31.6037 28.1257 28.0584 31.6809 23.6912 31.6809C19.3241 31.6809 15.7788 28.1257 15.7788 23.7464C15.7788 19.3671 19.3241 15.812 23.6912 15.812C28.0584 15.812 31.6037 19.3671 31.6037 23.7464Z" fill="white"/>
</mask>
<g mask="url(#mask3_2921_104752)">
<path d="M41.6191 14.1396H23.2964V32.5132H41.6191V14.1396Z" fill="#6B1A35" fill-opacity="0.16"/>
</g>
<path fill-rule="evenodd" clip-rule="evenodd" d="M29.7019 23.6575C29.7019 26.946 27.0188 29.6123 23.7072 29.6123C20.3955 29.6123 17.7124 26.946 17.7124 23.6575C17.7124 20.369 20.3955 17.7026 23.7072 17.7026C27.0188 17.7026 29.7019 20.369 29.7019 23.6575Z" fill="#FF9566"/>
<path fill-rule="evenodd" clip-rule="evenodd" d="M23.6669 29.2725C20.5487 29.2725 18.0267 26.7759 18.0267 23.6893C18.0267 20.6028 20.5568 18.1062 23.6669 18.1062C26.7771 18.1062 29.3072 20.6028 29.3072 23.6893C29.3072 26.7759 26.7852 29.2725 23.6669 29.2725ZM23.6669 17.1851C20.0411 17.1851 17.1001 20.0938 17.1001 23.6893C17.1001 27.2768 20.0411 30.1936 23.6669 30.1936C27.2928 30.1936 30.2338 27.2849 30.2338 23.6893C30.2338 20.1019 27.2928 17.1851 23.6669 17.1851Z" fill="#FF7041"/>
<path fill-rule="evenodd" clip-rule="evenodd" d="M23.667 22.0812C23.7395 22.0085 23.8281 21.9358 23.9168 21.855C24.1827 21.5803 24.4969 21.3864 24.8676 21.3056C25.5686 21.144 26.2132 21.4106 26.608 22.0247C26.8416 22.3802 26.9464 22.768 26.9142 23.1882C26.89 23.4952 26.8014 23.7861 26.6724 24.0689C26.4952 24.4486 26.2534 24.7961 25.9876 25.1112C25.5766 25.6041 25.1093 26.0323 24.6097 26.4363C24.3116 26.6787 23.9974 26.9049 23.6912 27.1473C23.6751 27.1635 23.6589 27.1715 23.6348 27.1554C23.111 26.7676 22.5954 26.3716 22.1119 25.9272C21.6849 25.5313 21.282 25.1031 20.9516 24.6102C20.7421 24.2951 20.5649 23.9638 20.4762 23.5922C20.2909 22.865 20.4682 22.2348 20.9839 21.7096C21.2498 21.4348 21.5882 21.2975 21.9669 21.2733C22.5148 21.2409 22.9741 21.4429 23.3689 21.8227C23.4736 21.9035 23.5784 21.9924 23.667 22.0812Z" fill="white"/>
</g>
<mask id="mask4_2921_104752" style="mask-type:alpha" maskUnits="userSpaceOnUse" x="3" y="3" width="41" height="42">
<path d="M23.8361 44.0917C34.9611 44.0917 43.9798 35.048 43.9798 23.892C43.9798 12.7361 34.9611 3.69238 23.8361 3.69238C12.711 3.69238 3.69238 12.7361 3.69238 23.892C3.69238 35.048 12.711 44.0917 23.8361 44.0917Z" fill="white"/>
</mask>
<g mask="url(#mask4_2921_104752)">
</g>
<mask id="mask5_2921_104752" style="mask-type:alpha" maskUnits="userSpaceOnUse" x="3" y="3" width="41" height="42">
<path d="M23.8361 44.0917C34.9611 44.0917 43.9798 35.048 43.9798 23.892C43.9798 12.7361 34.9611 3.69238 23.8361 3.69238C12.711 3.69238 3.69238 12.7361 3.69238 23.892C3.69238 35.048 12.711 44.0917 23.8361 44.0917Z" fill="white"/>
</mask>
<g mask="url(#mask5_2921_104752)">
<path fill-rule="evenodd" clip-rule="evenodd" d="M28.4998 38.0721C28.4998 38.0721 27.5732 35.3169 25.2043 36.2784C22.8354 37.2399 21.0386 38.2741 21.0386 38.2741L22.6017 38.9366L28.4998 38.0721Z" fill="#0A91DC"/>
<path fill-rule="evenodd" clip-rule="evenodd" d="M6.76865 31.6888L12.2236 29.9032C12.6345 29.7658 13.0615 29.7012 13.4966 29.7012C14.5602 29.7093 16.4296 29.992 17.9524 31.6969C20.2085 34.2178 21.82 34.9854 22.513 35.5429C23.2059 36.1004 23.786 36.8842 23.3832 37.571C22.9803 38.2577 28.0404 36.5125 28.7736 36.973C29.5069 37.4336 29.7647 38.6698 29.1201 39.09C28.2096 39.6717 27.4119 39.906 24.6804 40.5605C21.9006 41.2311 20.8612 41.2958 19.6606 41.2958C18.46 41.2958 16.8083 41.1099 14.1332 38.9526C11.4662 36.7953 11.4662 36.6014 9.621 37.5306C7.77584 38.4597 7.22793 34.7753 7.22793 34.7753C7.22793 34.7753 6.39801 32.8442 6.76865 32.521C7.13929 32.1979 6.76865 31.6888 6.76865 31.6888Z" fill="#00AEEF"/>
<mask id="mask6_2921_104752" style="mask-type:alpha" maskUnits="userSpaceOnUse" x="6" y="29" width="24" height="13">
<path fill-rule="evenodd" clip-rule="evenodd" d="M6.76865 31.6888L12.2236 29.9032C12.6345 29.7658 13.0615 29.7012 13.4966 29.7012C14.5602 29.7093 16.4296 29.992 17.9524 31.6969C20.2085 34.2178 21.82 34.9854 22.513 35.5429C23.2059 36.1004 23.786 36.8842 23.3832 37.571C22.9803 38.2577 28.0404 36.5125 28.7736 36.973C29.5069 37.4336 29.7647 38.6698 29.1201 39.09C28.2096 39.6717 27.4119 39.906 24.6804 40.5605C21.9006 41.2311 20.8612 41.2958 19.6606 41.2958C18.46 41.2958 16.8083 41.1099 14.1332 38.9526C11.4662 36.7953 11.4662 36.6014 9.621 37.5306C7.77584 38.4597 7.22793 34.7753 7.22793 34.7753C7.22793 34.7753 6.39801 32.8442 6.76865 32.521C7.13929 32.1979 6.76865 31.6888 6.76865 31.6888Z" fill="white"/>
</mask>
<g mask="url(#mask6_2921_104752)">
<path fill-rule="evenodd" clip-rule="evenodd" d="M23.4232 37.5949C23.3749 37.6919 23.3024 37.7727 23.2057 37.8211C22.9317 37.9666 22.3677 38.1605 21.5459 37.8373C20.3695 37.3767 19.2092 36.6011 18.7016 36.3102C18.1053 35.9708 16.7436 34.9932 16.7436 34.9932C16.6147 34.9043 16.4535 34.872 16.3004 34.9205C16.2118 34.9447 16.0587 35.1225 16.0104 35.2033C15.8653 35.4699 16.1715 35.8012 16.8564 36.286C17.4204 36.69 22.1179 40.2047 23.8906 38.3867C24.2451 38.0231 24.3579 37.5222 24.503 37.1909C24.5594 37.0616 24.7124 36.9162 24.656 36.7546C24.5513 36.488 24.2612 36.3425 23.9873 36.4233L23.5844 36.5364C23.5844 36.5364 23.4313 36.5284 23.4958 36.8273C23.5602 37.1263 23.5361 37.4091 23.4635 37.5303C23.4474 37.5545 23.4313 37.5787 23.4232 37.5949Z" fill="#0A91DC"/>
</g>
<mask id="mask7_2921_104752" style="mask-type:alpha" maskUnits="userSpaceOnUse" x="6" y="29" width="24" height="13">
<path fill-rule="evenodd" clip-rule="evenodd" d="M6.76865 31.6888L12.2236 29.9032C12.6345 29.7658 13.0615 29.7012 13.4966 29.7012C14.5602 29.7093 16.4296 29.992 17.9524 31.6969C20.2085 34.2178 21.82 34.9854 22.513 35.5429C23.2059 36.1004 23.786 36.8842 23.3832 37.571C22.9803 38.2577 28.0404 36.5125 28.7736 36.973C29.5069 37.4336 29.7647 38.6698 29.1201 39.09C28.2096 39.6717 27.4119 39.906 24.6804 40.5605C21.9006 41.2311 20.8612 41.2958 19.6606 41.2958C18.46 41.2958 16.8083 41.1099 14.1332 38.9526C11.4662 36.7953 11.4662 36.6014 9.621 37.5306C7.77584 38.4597 7.22793 34.7753 7.22793 34.7753C7.22793 34.7753 6.39801 32.8442 6.76865 32.521C7.13929 32.1979 6.76865 31.6888 6.76865 31.6888Z" fill="white"/>
</mask>
<g mask="url(#mask7_2921_104752)">
<path fill-rule="evenodd" clip-rule="evenodd" d="M11.9176 37.951C12.2076 37.8864 12.2802 37.4986 12.0304 37.337C11.1924 36.7956 9.94349 35.6806 9.64536 33.7657C9.2022 30.9539 10.862 30.154 11.0715 29.6934C11.2488 29.3137 8.33199 29.9116 7.35704 30.1136C7.17977 30.154 7.06697 30.3156 7.09114 30.4933L7.84854 35.3089C7.8566 35.3412 7.86466 35.3736 7.88077 35.4059L9.30695 38.2581C9.37947 38.3954 9.53256 38.4681 9.67759 38.4358L11.9176 37.951Z" fill="#0A91DC"/>
</g>
<path fill-rule="evenodd" clip-rule="evenodd" d="M4.4783 31.4871C4.92952 31.3255 5.60635 31.0751 6.50878 30.7438C7.02446 30.5579 7.59654 30.8165 7.78187 31.3255L10.1346 37.6844C10.32 38.1934 10.0541 38.759 9.54645 38.9529L5.48548 40.4315C4.96981 40.6174 4.39772 40.3588 4.2124 39.8498C4.22852 34.3312 4.31715 31.5437 4.4783 31.4871Z" fill="#60304B"/>
<path fill-rule="evenodd" clip-rule="evenodd" d="M3.55273 30.9596C4.06036 30.7738 4.68884 31.0323 4.87416 31.5414L7.75068 39.3707C7.936 39.8798 7.67816 40.4454 7.17054 40.6312L3.55273 41.9563V30.9596Z" fill="#2A759F"/>
</g>
<mask id="mask8_2921_104752" style="mask-type:alpha" maskUnits="userSpaceOnUse" x="3" y="3" width="41" height="42">
<path d="M23.8361 44.0917C34.9611 44.0917 43.9798 35.048 43.9798 23.892C43.9798 12.7361 34.9611 3.69238 23.8361 3.69238C12.711 3.69238 3.69238 12.7361 3.69238 23.892C3.69238 35.048 12.711 44.0917 23.8361 44.0917Z" fill="white"/>
</mask>
<g mask="url(#mask8_2921_104752)">
<path fill-rule="evenodd" clip-rule="evenodd" d="M19.1804 9.90349C19.1804 9.90349 20.107 12.6587 22.4759 11.6972C24.8448 10.7357 26.6416 9.7015 26.6416 9.7015L25.0704 9.03087L19.1804 9.90349Z" fill="#10A8E5"/>
<path fill-rule="evenodd" clip-rule="evenodd" d="M40.9032 16.2858L35.4483 18.0714C35.0374 18.2088 34.6103 18.2734 34.1752 18.2734C33.1116 18.2654 31.2423 17.9826 29.7194 16.2777C27.4634 13.7568 25.8519 12.9892 25.1589 12.4317C24.466 11.8742 23.8858 11.0904 24.2887 10.4037C24.6916 9.71687 19.6315 11.4621 18.8983 11.0016C18.165 10.541 17.9072 9.30479 18.5518 8.88464C19.4623 8.30289 20.26 8.06857 22.9915 7.41411C25.7713 6.74348 26.8107 6.67884 28.0113 6.67884C29.2118 6.67884 30.8636 6.86468 33.5387 9.022C36.2057 11.1793 36.2057 11.3732 38.0509 10.4441C39.896 9.51487 40.4439 13.1993 40.4439 13.1993C40.4439 13.1993 41.2739 15.1304 40.9032 15.4536C40.5326 15.7768 40.9032 16.2858 40.9032 16.2858Z" fill="url(#paint2_linear_2921_104752)"/>
<mask id="mask9_2921_104752" style="mask-type:alpha" maskUnits="userSpaceOnUse" x="18" y="6" width="23" height="13">
<path fill-rule="evenodd" clip-rule="evenodd" d="M40.9032 16.2858L35.4483 18.0714C35.0374 18.2088 34.6103 18.2734 34.1752 18.2734C33.1116 18.2654 31.2423 17.9826 29.7194 16.2777C27.4634 13.7568 25.8519 12.9892 25.1589 12.4317C24.466 11.8742 23.8858 11.0904 24.2887 10.4037C24.6916 9.71687 19.6315 11.4621 18.8983 11.0016C18.165 10.541 17.9072 9.30479 18.5518 8.88464C19.4623 8.30289 20.26 8.06857 22.9915 7.41411C25.7713 6.74348 26.8107 6.67884 28.0113 6.67884C29.2118 6.67884 30.8636 6.86468 33.5387 9.022C36.2057 11.1793 36.2057 11.3732 38.0509 10.4441C39.896 9.51487 40.4439 13.1993 40.4439 13.1993C40.4439 13.1993 41.2739 15.1304 40.9032 15.4536C40.5326 15.7768 40.9032 16.2858 40.9032 16.2858Z" fill="white"/>
</mask>
<g mask="url(#mask9_2921_104752)">
<path fill-rule="evenodd" clip-rule="evenodd" d="M24.2564 10.3802C24.3048 10.2832 24.3773 10.2024 24.474 10.154C24.7479 10.0085 25.312 9.8146 26.1338 10.1378C27.3102 10.5984 28.4705 11.374 28.9781 11.6649C29.5744 12.0042 30.9361 12.9819 30.9361 12.9819C31.065 13.0708 31.2262 13.1031 31.3792 13.0546C31.4679 13.0304 31.621 12.8526 31.6693 12.7718C31.8144 12.5052 31.5082 12.1739 30.8233 11.6891C30.2593 11.2851 25.5618 7.7704 23.7891 9.58837C23.4346 9.95196 23.3218 10.4529 23.1767 10.7842C23.1203 10.9135 22.9672 11.0589 23.0236 11.2205C23.1284 11.4871 23.4185 11.6326 23.6924 11.5518L24.0953 11.4387C24.0953 11.4387 24.2484 11.4467 24.1839 11.1478C24.1195 10.8488 24.1436 10.566 24.2162 10.4448C24.2323 10.4206 24.2484 10.4044 24.2564 10.3802Z" fill="#10A8E5"/>
</g>
<mask id="mask10_2921_104752" style="mask-type:alpha" maskUnits="userSpaceOnUse" x="18" y="6" width="23" height="13">
<path fill-rule="evenodd" clip-rule="evenodd" d="M40.9032 16.2858L35.4483 18.0714C35.0374 18.2088 34.6103 18.2734 34.1752 18.2734C33.1116 18.2654 31.2423 17.9826 29.7194 16.2777C27.4634 13.7568 25.8519 12.9892 25.1589 12.4317C24.466 11.8742 23.8858 11.0904 24.2887 10.4037C24.6916 9.71687 19.6315 11.4621 18.8983 11.0016C18.165 10.541 17.9072 9.30479 18.5518 8.88464C19.4623 8.30289 20.26 8.06857 22.9915 7.41411C25.7713 6.74348 26.8107 6.67884 28.0113 6.67884C29.2118 6.67884 30.8636 6.86468 33.5387 9.022C36.2057 11.1793 36.2057 11.3732 38.0509 10.4441C39.896 9.51487 40.4439 13.1993 40.4439 13.1993C40.4439 13.1993 41.2739 15.1304 40.9032 15.4536C40.5326 15.7768 40.9032 16.2858 40.9032 16.2858Z" fill="white"/>
</mask>
<g mask="url(#mask10_2921_104752)">
<path fill-rule="evenodd" clip-rule="evenodd" d="M35.7626 10.0241C35.4725 10.0887 35.4 10.4765 35.6498 10.6381C36.4878 11.1795 37.7367 12.2945 38.0348 14.2094C38.478 17.0212 36.8181 17.8211 36.6086 18.2817C36.4314 18.6614 39.3482 18.0635 40.3231 17.8615C40.5004 17.8211 40.6132 17.6595 40.589 17.4818L39.8316 12.6662C39.8236 12.6339 39.8155 12.6015 39.7994 12.5692L38.3732 9.71703C38.3007 9.57967 38.1476 9.50696 38.0026 9.53927L35.7626 10.0241Z" fill="#10A8E5"/>
</g>
<path fill-rule="evenodd" clip-rule="evenodd" d="M43.2021 16.4875C42.7509 16.6491 42.0741 16.8996 41.1716 17.2308C40.656 17.4167 40.0839 17.1581 39.8986 16.6491L37.5458 10.2902C37.3605 9.7812 37.6263 9.21561 38.134 9.02169L42.1869 7.54308C42.7026 7.35724 43.2746 7.61579 43.46 8.12482C43.4438 13.6434 43.3552 16.4309 43.2021 16.4875Z" fill="#60304B"/>
<path fill-rule="evenodd" clip-rule="evenodd" d="M44.1191 17.015C43.6115 17.2008 42.983 16.9423 42.7977 16.4333L39.9212 8.60387C39.7359 8.09484 39.9937 7.52925 40.5013 7.34341L44.1191 6.01832V17.015Z" fill="#2A759F"/>
</g>
<mask id="mask11_2921_104752" style="mask-type:alpha" maskUnits="userSpaceOnUse" x="3" y="3" width="41" height="42">
<path d="M23.8361 44.0917C34.9611 44.0917 43.9798 35.048 43.9798 23.892C43.9798 12.7361 34.9611 3.69238 23.8361 3.69238C12.711 3.69238 3.69238 12.7361 3.69238 23.892C3.69238 35.048 12.711 44.0917 23.8361 44.0917Z" fill="white"/>
</mask>
<g mask="url(#mask11_2921_104752)">
<path fill-rule="evenodd" clip-rule="evenodd" d="M13.0713 12.5801C13.3694 12.5801 13.6111 12.8225 13.6111 13.1214V14.1718H14.6586C14.9567 14.1718 15.1984 14.4142 15.1984 14.7132V14.7536C15.1984 15.0525 14.9567 15.2949 14.6586 15.2949H13.6111V16.313C13.6111 16.6119 13.3694 16.8543 13.0713 16.8543H13.031C12.7329 16.8543 12.4911 16.6119 12.4911 16.313V15.2949H11.4759C11.1778 15.2949 10.936 15.0525 10.936 14.7536V14.7132C10.936 14.4142 11.1778 14.1718 11.4759 14.1718H12.4911V13.1214C12.4911 12.8225 12.7329 12.5801 13.031 12.5801H13.0713Z" fill="#7BC6EF"/>
</g>
<mask id="mask12_2921_104752" style="mask-type:alpha" maskUnits="userSpaceOnUse" x="3" y="3" width="41" height="42">
<path d="M23.8361 44.0917C34.9611 44.0917 43.9798 35.048 43.9798 23.892C43.9798 12.7361 34.9611 3.69238 23.8361 3.69238C12.711 3.69238 3.69238 12.7361 3.69238 23.892C3.69238 35.048 12.711 44.0917 23.8361 44.0917Z" fill="white"/>
</mask>
<g mask="url(#mask12_2921_104752)">
<path fill-rule="evenodd" clip-rule="evenodd" d="M34.3429 31.1636C34.5524 31.1636 34.7216 31.3332 34.7216 31.5433V32.3756H35.5516C35.7611 32.3756 35.9303 32.5452 35.9303 32.7553V32.8442C35.9303 33.0543 35.7611 33.2239 35.5516 33.2239H34.7216V34.0238C34.7216 34.2339 34.5524 34.4036 34.3429 34.4036H34.2543C34.0448 34.4036 33.8756 34.2339 33.8756 34.0238V33.2239H33.0779C32.8684 33.2239 32.6992 33.0543 32.6992 32.8442V32.7553C32.6992 32.5452 32.8684 32.3756 33.0779 32.3756H33.8756V31.5433C33.8756 31.3332 34.0448 31.1636 34.2543 31.1636H34.3429Z" fill="#7BC6EF"/>
</g>
<mask id="mask13_2921_104752" style="mask-type:alpha" maskUnits="userSpaceOnUse" x="3" y="3" width="41" height="42">
<path d="M23.8361 44.0917C34.9611 44.0917 43.9798 35.048 43.9798 23.892C43.9798 12.7361 34.9611 3.69238 23.8361 3.69238C12.711 3.69238 3.69238 12.7361 3.69238 23.892C3.69238 35.048 12.711 44.0917 23.8361 44.0917Z" fill="white"/>
</mask>
<g mask="url(#mask13_2921_104752)">
<path fill-rule="evenodd" clip-rule="evenodd" d="M11.339 19.0435C11.5163 19.0435 11.6532 19.1889 11.6532 19.3586V19.9484H12.2414C12.4187 19.9484 12.5557 20.0938 12.5557 20.2635C12.5557 20.4332 12.4106 20.5786 12.2414 20.5786H11.6532V21.1442C11.6532 21.322 11.5082 21.4593 11.339 21.4593C11.1617 21.4593 11.0247 21.3139 11.0247 21.1442V20.5786H10.4607C10.2835 20.5786 10.1465 20.4332 10.1465 20.2635C10.1465 20.0938 10.2915 19.9484 10.4607 19.9484H11.0247V19.3586C11.0247 19.1889 11.1617 19.0435 11.339 19.0435Z" fill="#7BC6EF"/>
</g>
<defs>
<linearGradient id="paint0_linear_2921_104752" x1="23.8947" y1="-4.66464" x2="23.8947" y2="51.6431" gradientUnits="userSpaceOnUse">
<stop offset="0.1875" stop-color="white"/>
<stop offset="0.99364" stop-color="#99DFF9"/>
</linearGradient>
<linearGradient id="paint1_linear_2921_104752" x1="47.4176" y1="8.52266" x2="2.88723" y2="35.9476" gradientUnits="userSpaceOnUse">
<stop stop-color="white" stop-opacity="0"/>
<stop offset="1" stop-color="white" stop-opacity="0.66"/>
</linearGradient>
<linearGradient id="paint2_linear_2921_104752" x1="-0.823259" y1="11.5241" x2="-50.2225" y2="17.2335" gradientUnits="userSpaceOnUse">
<stop stop-color="#ADDCFD"/>
<stop offset="1" stop-color="#00AEEF"/>
</linearGradient>
</defs>
</svg>
